<mxfile host="Electron" agent="Mozilla/5.0 (Windows NT 10.0; Win64; x64) AppleWebKit/537.36 (KHTML, like Gecko) draw.io/24.7.17 Chrome/128.0.6613.36 Electron/32.0.1 Safari/537.36" version="24.7.17" pages="2">
  <diagram name="Page-1" id="1-aNh0wFtnea57TFld6X">
    <mxGraphModel dx="1098" dy="827" grid="1" gridSize="10" guides="1" tooltips="1" connect="1" arrows="1" fold="1" page="1" pageScale="1" pageWidth="850" pageHeight="1100" math="0" shadow="0">
      <root>
        <mxCell id="0" />
        <mxCell id="1" parent="0" />
        <mxCell id="9481hFDR9XzV9LIjArY7-18" value="" style="rounded=0;whiteSpace=wrap;html=1;" vertex="1" parent="1">
          <mxGeometry x="470" y="460" width="270" height="220" as="geometry" />
        </mxCell>
        <mxCell id="9481hFDR9XzV9LIjArY7-17" value="" style="rounded=0;whiteSpace=wrap;html=1;" vertex="1" parent="1">
          <mxGeometry x="60" y="460" width="260" height="220" as="geometry" />
        </mxCell>
        <mxCell id="9481hFDR9XzV9LIjArY7-16" value="" style="rounded=0;whiteSpace=wrap;html=1;" vertex="1" parent="1">
          <mxGeometry x="60" y="260" width="680" height="160" as="geometry" />
        </mxCell>
        <mxCell id="9481hFDR9XzV9LIjArY7-1" value="" style="sketch=0;points=[[0.5,0,0],[1,0.5,0],[0.5,1,0],[0,0.5,0],[0.145,0.145,0],[0.8555,0.145,0],[0.855,0.8555,0],[0.145,0.855,0]];verticalLabelPosition=bottom;html=1;verticalAlign=top;aspect=fixed;align=center;pointerEvents=1;shape=mxgraph.cisco19.rect;prIcon=router;fillColor=#FAFAFA;strokeColor=#005073;" vertex="1" parent="1">
          <mxGeometry x="550" y="540" width="50" height="50" as="geometry" />
        </mxCell>
        <mxCell id="9481hFDR9XzV9LIjArY7-2" value="" style="sketch=0;points=[[0.5,0,0],[1,0.5,0],[0.5,1,0],[0,0.5,0],[0.145,0.145,0],[0.8555,0.145,0],[0.855,0.8555,0],[0.145,0.855,0]];verticalLabelPosition=bottom;html=1;verticalAlign=top;aspect=fixed;align=center;pointerEvents=1;shape=mxgraph.cisco19.rect;prIcon=router;fillColor=#FAFAFA;strokeColor=#005073;" vertex="1" parent="1">
          <mxGeometry x="190" y="540" width="50" height="50" as="geometry" />
        </mxCell>
        <mxCell id="9481hFDR9XzV9LIjArY7-3" value="" style="sketch=0;points=[[0.5,0,0],[1,0.5,0],[0.5,1,0],[0,0.5,0],[0.145,0.145,0],[0.8555,0.145,0],[0.855,0.8555,0],[0.145,0.855,0]];verticalLabelPosition=bottom;html=1;verticalAlign=top;aspect=fixed;align=center;pointerEvents=1;shape=mxgraph.cisco19.rect;prIcon=router;fillColor=#FAFAFA;strokeColor=#005073;" vertex="1" parent="1">
          <mxGeometry x="550" y="320" width="50" height="50" as="geometry" />
        </mxCell>
        <mxCell id="9481hFDR9XzV9LIjArY7-4" value="" style="sketch=0;points=[[0.5,0,0],[1,0.5,0],[0.5,1,0],[0,0.5,0],[0.145,0.145,0],[0.8555,0.145,0],[0.855,0.8555,0],[0.145,0.855,0]];verticalLabelPosition=bottom;html=1;verticalAlign=top;aspect=fixed;align=center;pointerEvents=1;shape=mxgraph.cisco19.rect;prIcon=router;fillColor=#FAFAFA;strokeColor=#005073;" vertex="1" parent="1">
          <mxGeometry x="190" y="320" width="50" height="50" as="geometry" />
        </mxCell>
        <mxCell id="9481hFDR9XzV9LIjArY7-8" value="" style="endArrow=none;html=1;rounded=0;exitX=1;exitY=0.5;exitDx=0;exitDy=0;exitPerimeter=0;" edge="1" parent="1" source="9481hFDR9XzV9LIjArY7-4">
          <mxGeometry width="50" height="50" relative="1" as="geometry">
            <mxPoint x="400" y="450" as="sourcePoint" />
            <mxPoint x="550" y="344" as="targetPoint" />
          </mxGeometry>
        </mxCell>
        <mxCell id="9481hFDR9XzV9LIjArY7-9" value="" style="endArrow=none;html=1;rounded=0;exitX=0.5;exitY=1;exitDx=0;exitDy=0;exitPerimeter=0;entryX=0.5;entryY=0;entryDx=0;entryDy=0;entryPerimeter=0;" edge="1" parent="1" source="9481hFDR9XzV9LIjArY7-4" target="9481hFDR9XzV9LIjArY7-2">
          <mxGeometry width="50" height="50" relative="1" as="geometry">
            <mxPoint x="250" y="355" as="sourcePoint" />
            <mxPoint x="560" y="354" as="targetPoint" />
          </mxGeometry>
        </mxCell>
        <mxCell id="9481hFDR9XzV9LIjArY7-10" value="" style="endArrow=none;html=1;rounded=0;exitX=0.5;exitY=0;exitDx=0;exitDy=0;exitPerimeter=0;entryX=0.5;entryY=1;entryDx=0;entryDy=0;entryPerimeter=0;" edge="1" parent="1" source="9481hFDR9XzV9LIjArY7-1" target="9481hFDR9XzV9LIjArY7-3">
          <mxGeometry width="50" height="50" relative="1" as="geometry">
            <mxPoint x="580" y="530" as="sourcePoint" />
            <mxPoint x="570" y="364" as="targetPoint" />
          </mxGeometry>
        </mxCell>
        <mxCell id="9481hFDR9XzV9LIjArY7-12" value="&lt;font style=&quot;font-size: 20px;&quot;&gt;R1&lt;/font&gt;" style="text;html=1;align=center;verticalAlign=middle;resizable=0;points=[];autosize=1;strokeColor=none;fillColor=none;" vertex="1" parent="1">
          <mxGeometry x="190" y="280" width="50" height="40" as="geometry" />
        </mxCell>
        <mxCell id="9481hFDR9XzV9LIjArY7-13" value="&lt;font style=&quot;font-size: 20px;&quot;&gt;R2&lt;/font&gt;" style="text;html=1;align=center;verticalAlign=middle;resizable=0;points=[];autosize=1;strokeColor=none;fillColor=none;" vertex="1" parent="1">
          <mxGeometry x="550" y="280" width="50" height="40" as="geometry" />
        </mxCell>
        <mxCell id="9481hFDR9XzV9LIjArY7-14" value="&lt;font style=&quot;font-size: 20px;&quot;&gt;R3&lt;/font&gt;" style="text;html=1;align=center;verticalAlign=middle;resizable=0;points=[];autosize=1;strokeColor=none;fillColor=none;" vertex="1" parent="1">
          <mxGeometry x="190" y="590" width="50" height="40" as="geometry" />
        </mxCell>
        <mxCell id="9481hFDR9XzV9LIjArY7-15" value="&lt;font style=&quot;font-size: 20px;&quot;&gt;R4&lt;/font&gt;" style="text;html=1;align=center;verticalAlign=middle;resizable=0;points=[];autosize=1;strokeColor=none;fillColor=none;" vertex="1" parent="1">
          <mxGeometry x="550" y="590" width="50" height="40" as="geometry" />
        </mxCell>
        <mxCell id="9481hFDR9XzV9LIjArY7-19" value="&lt;font style=&quot;font-size: 20px;&quot;&gt;AS 100&lt;/font&gt;" style="text;html=1;align=center;verticalAlign=middle;resizable=0;points=[];autosize=1;strokeColor=none;fillColor=none;" vertex="1" parent="1">
          <mxGeometry x="350" y="270" width="90" height="40" as="geometry" />
        </mxCell>
        <mxCell id="9481hFDR9XzV9LIjArY7-20" value="&lt;font style=&quot;font-size: 20px;&quot;&gt;AS 200&lt;/font&gt;" style="text;html=1;align=center;verticalAlign=middle;resizable=0;points=[];autosize=1;strokeColor=none;fillColor=none;" vertex="1" parent="1">
          <mxGeometry x="170" y="630" width="90" height="40" as="geometry" />
        </mxCell>
        <mxCell id="9481hFDR9XzV9LIjArY7-21" value="&lt;font style=&quot;font-size: 20px;&quot;&gt;AS 200&lt;/font&gt;" style="text;html=1;align=center;verticalAlign=middle;resizable=0;points=[];autosize=1;strokeColor=none;fillColor=none;" vertex="1" parent="1">
          <mxGeometry x="530" y="630" width="90" height="40" as="geometry" />
        </mxCell>
        <mxCell id="9481hFDR9XzV9LIjArY7-22" value="lo0:3.3.3.3/32" style="text;html=1;align=center;verticalAlign=middle;resizable=0;points=[];autosize=1;strokeColor=none;fillColor=none;" vertex="1" parent="1">
          <mxGeometry x="80" y="555" width="100" height="30" as="geometry" />
        </mxCell>
        <mxCell id="9481hFDR9XzV9LIjArY7-23" value="lo0:4.4.4.4/32" style="text;html=1;align=center;verticalAlign=middle;resizable=0;points=[];autosize=1;strokeColor=none;fillColor=none;" vertex="1" parent="1">
          <mxGeometry x="610" y="555" width="100" height="30" as="geometry" />
        </mxCell>
        <mxCell id="9481hFDR9XzV9LIjArY7-24" value="lo0:1.1.1.1/32" style="text;html=1;align=center;verticalAlign=middle;resizable=0;points=[];autosize=1;strokeColor=none;fillColor=none;" vertex="1" parent="1">
          <mxGeometry x="80" y="330" width="100" height="30" as="geometry" />
        </mxCell>
        <mxCell id="9481hFDR9XzV9LIjArY7-25" value="lo0:2.2.2.2/32" style="text;html=1;align=center;verticalAlign=middle;resizable=0;points=[];autosize=1;strokeColor=none;fillColor=none;" vertex="1" parent="1">
          <mxGeometry x="610" y="330" width="100" height="30" as="geometry" />
        </mxCell>
        <mxCell id="9481hFDR9XzV9LIjArY7-26" value="lo0:1.1.1.1/32" style="text;html=1;align=center;verticalAlign=middle;resizable=0;points=[];autosize=1;strokeColor=none;fillColor=none;" vertex="1" parent="1">
          <mxGeometry x="80" y="330" width="100" height="30" as="geometry" />
        </mxCell>
        <mxCell id="9481hFDR9XzV9LIjArY7-27" value="12.1.1.0/24" style="text;html=1;align=center;verticalAlign=middle;resizable=0;points=[];autosize=1;strokeColor=none;fillColor=none;" vertex="1" parent="1">
          <mxGeometry x="355" y="310" width="80" height="30" as="geometry" />
        </mxCell>
        <mxCell id="9481hFDR9XzV9LIjArY7-28" value="13.1.1.0/24" style="text;html=1;align=center;verticalAlign=middle;resizable=0;points=[];autosize=1;strokeColor=none;fillColor=none;" vertex="1" parent="1">
          <mxGeometry x="130" y="470" width="80" height="30" as="geometry" />
        </mxCell>
        <mxCell id="9481hFDR9XzV9LIjArY7-29" value="14.1.1.0/24" style="text;html=1;align=center;verticalAlign=middle;resizable=0;points=[];autosize=1;strokeColor=none;fillColor=none;" vertex="1" parent="1">
          <mxGeometry x="590" y="470" width="80" height="30" as="geometry" />
        </mxCell>
      </root>
    </mxGraphModel>
  </diagram>
  <diagram id="bwdewdsIONCqTn08phbR" name="Page-2">
    <mxGraphModel dx="1434" dy="836" grid="1" gridSize="10" guides="1" tooltips="1" connect="1" arrows="1" fold="1" page="1" pageScale="1" pageWidth="850" pageHeight="1100" math="0" shadow="0">
      <root>
        <mxCell id="0" />
        <mxCell id="1" parent="0" />
        <mxCell id="1p1wQp9aGQIOmtk_qN-g-3" value="" style="rounded=0;whiteSpace=wrap;html=1;fillColor=default;strokeColor=#6c8ebf;gradientColor=#CCE5FF;gradientDirection=south;" vertex="1" parent="1">
          <mxGeometry x="340" y="150" width="620" height="460" as="geometry" />
        </mxCell>
        <mxCell id="1p1wQp9aGQIOmtk_qN-g-6" value="" style="rounded=0;whiteSpace=wrap;html=1;fillColor=default;strokeColor=#6c8ebf;gradientColor=#CCE5FF;gradientDirection=south;" vertex="1" parent="1">
          <mxGeometry x="440" y="200" width="275" height="60" as="geometry" />
        </mxCell>
        <mxCell id="1p1wQp9aGQIOmtk_qN-g-10" value="&lt;font style=&quot;font-size: 20px;&quot;&gt;High&lt;/font&gt;" style="text;html=1;align=center;verticalAlign=middle;resizable=0;points=[];autosize=1;strokeColor=none;fillColor=none;" vertex="1" parent="1">
          <mxGeometry x="365" y="210" width="60" height="40" as="geometry" />
        </mxCell>
        <mxCell id="1p1wQp9aGQIOmtk_qN-g-11" value="&lt;font style=&quot;font-size: 20px;&quot;&gt;Medium&lt;/font&gt;" style="text;html=1;align=center;verticalAlign=middle;resizable=0;points=[];autosize=1;strokeColor=none;fillColor=none;" vertex="1" parent="1">
          <mxGeometry x="350" y="310" width="90" height="40" as="geometry" />
        </mxCell>
        <mxCell id="1p1wQp9aGQIOmtk_qN-g-12" value="&lt;font style=&quot;font-size: 20px;&quot;&gt;Normal&lt;/font&gt;" style="text;html=1;align=center;verticalAlign=middle;resizable=0;points=[];autosize=1;strokeColor=none;fillColor=none;" vertex="1" parent="1">
          <mxGeometry x="350" y="410" width="90" height="40" as="geometry" />
        </mxCell>
        <mxCell id="1p1wQp9aGQIOmtk_qN-g-13" value="&lt;font style=&quot;font-size: 20px;&quot;&gt;Low&lt;/font&gt;" style="text;html=1;align=center;verticalAlign=middle;resizable=0;points=[];autosize=1;strokeColor=none;fillColor=none;" vertex="1" parent="1">
          <mxGeometry x="365" y="510" width="60" height="40" as="geometry" />
        </mxCell>
        <mxCell id="1p1wQp9aGQIOmtk_qN-g-14" value="" style="rounded=1;whiteSpace=wrap;html=1;fillColor=#FF0000;strokeColor=#000000;fontColor=#ffffff;dashed=1;" vertex="1" parent="1">
          <mxGeometry x="660" y="215" width="40" height="30" as="geometry" />
        </mxCell>
        <mxCell id="1p1wQp9aGQIOmtk_qN-g-16" value="" style="rounded=1;whiteSpace=wrap;html=1;fillColor=#FF0000;strokeColor=#000000;fontColor=#ffffff;dashed=1;" vertex="1" parent="1">
          <mxGeometry x="610" y="215" width="40" height="30" as="geometry" />
        </mxCell>
        <mxCell id="1p1wQp9aGQIOmtk_qN-g-17" value="" style="rounded=1;whiteSpace=wrap;html=1;fillColor=#FF0000;strokeColor=#000000;fontColor=#ffffff;dashed=1;" vertex="1" parent="1">
          <mxGeometry x="557.5" y="215" width="40" height="30" as="geometry" />
        </mxCell>
        <mxCell id="1p1wQp9aGQIOmtk_qN-g-18" value="" style="rounded=1;whiteSpace=wrap;html=1;fillColor=#FF0000;strokeColor=#000000;fontColor=#ffffff;dashed=1;" vertex="1" parent="1">
          <mxGeometry x="500" y="215" width="40" height="30" as="geometry" />
        </mxCell>
        <mxCell id="1p1wQp9aGQIOmtk_qN-g-19" value="" style="rounded=1;whiteSpace=wrap;html=1;fillColor=#FF0000;strokeColor=#000000;fontColor=#ffffff;dashed=1;" vertex="1" parent="1">
          <mxGeometry x="450" y="215" width="40" height="30" as="geometry" />
        </mxCell>
        <mxCell id="1p1wQp9aGQIOmtk_qN-g-26" value="" style="rounded=0;whiteSpace=wrap;html=1;fillColor=default;strokeColor=#6c8ebf;gradientColor=#CCE5FF;gradientDirection=south;" vertex="1" parent="1">
          <mxGeometry x="440" y="300" width="275" height="60" as="geometry" />
        </mxCell>
        <mxCell id="1p1wQp9aGQIOmtk_qN-g-27" value="" style="rounded=1;whiteSpace=wrap;html=1;fillColor=#007FFF;strokeColor=#000000;fontColor=#ffffff;dashed=1;" vertex="1" parent="1">
          <mxGeometry x="660" y="315" width="40" height="30" as="geometry" />
        </mxCell>
        <mxCell id="1p1wQp9aGQIOmtk_qN-g-28" value="" style="rounded=1;whiteSpace=wrap;html=1;fillColor=#007FFF;strokeColor=#000000;fontColor=#ffffff;dashed=1;" vertex="1" parent="1">
          <mxGeometry x="610" y="315" width="40" height="30" as="geometry" />
        </mxCell>
        <mxCell id="1p1wQp9aGQIOmtk_qN-g-29" value="" style="rounded=1;whiteSpace=wrap;html=1;fillColor=#007FFF;strokeColor=#000000;fontColor=#ffffff;dashed=1;" vertex="1" parent="1">
          <mxGeometry x="557.5" y="315" width="40" height="30" as="geometry" />
        </mxCell>
        <mxCell id="1p1wQp9aGQIOmtk_qN-g-30" value="" style="rounded=1;whiteSpace=wrap;html=1;fillColor=#007FFF;strokeColor=#000000;fontColor=#ffffff;dashed=1;" vertex="1" parent="1">
          <mxGeometry x="500" y="315" width="40" height="30" as="geometry" />
        </mxCell>
        <mxCell id="1p1wQp9aGQIOmtk_qN-g-32" value="" style="rounded=0;whiteSpace=wrap;html=1;fillColor=default;strokeColor=#6c8ebf;gradientColor=#CCE5FF;gradientDirection=south;" vertex="1" parent="1">
          <mxGeometry x="440" y="400" width="275" height="60" as="geometry" />
        </mxCell>
        <mxCell id="1p1wQp9aGQIOmtk_qN-g-33" value="" style="rounded=1;whiteSpace=wrap;html=1;fillColor=#33FF33;strokeColor=#000000;fontColor=#ffffff;dashed=1;" vertex="1" parent="1">
          <mxGeometry x="660" y="415" width="40" height="30" as="geometry" />
        </mxCell>
        <mxCell id="1p1wQp9aGQIOmtk_qN-g-34" value="" style="rounded=1;whiteSpace=wrap;html=1;fillColor=#33FF33;strokeColor=#000000;fontColor=#ffffff;dashed=1;" vertex="1" parent="1">
          <mxGeometry x="610" y="415" width="40" height="30" as="geometry" />
        </mxCell>
        <mxCell id="1p1wQp9aGQIOmtk_qN-g-35" value="" style="rounded=1;whiteSpace=wrap;html=1;fillColor=#33FF33;strokeColor=#000000;fontColor=#ffffff;dashed=1;" vertex="1" parent="1">
          <mxGeometry x="557.5" y="415" width="40" height="30" as="geometry" />
        </mxCell>
        <mxCell id="1p1wQp9aGQIOmtk_qN-g-38" value="" style="rounded=0;whiteSpace=wrap;html=1;fillColor=default;strokeColor=#6c8ebf;gradientColor=#CCE5FF;gradientDirection=south;" vertex="1" parent="1">
          <mxGeometry x="440" y="500" width="275" height="60" as="geometry" />
        </mxCell>
        <mxCell id="1p1wQp9aGQIOmtk_qN-g-39" value="" style="rounded=1;whiteSpace=wrap;html=1;fillColor=#FFFF00;strokeColor=#000000;fontColor=#ffffff;dashed=1;" vertex="1" parent="1">
          <mxGeometry x="660" y="515" width="40" height="30" as="geometry" />
        </mxCell>
        <mxCell id="1p1wQp9aGQIOmtk_qN-g-48" value="" style="rounded=1;whiteSpace=wrap;html=1;fillColor=#FFFF00;strokeColor=#000000;fontColor=#ffffff;dashed=1;" vertex="1" parent="1">
          <mxGeometry x="610" y="515" width="40" height="30" as="geometry" />
        </mxCell>
        <mxCell id="1p1wQp9aGQIOmtk_qN-g-51" value="" style="verticalLabelPosition=bottom;verticalAlign=top;html=1;shape=mxgraph.basic.diag_snip_rect;dx=6;whiteSpace=wrap;rotation=-90;fillColor=#FFFFFF;gradientColor=#CCE5FF;strokeColor=#6c8ebf;gradientDirection=west;" vertex="1" parent="1">
          <mxGeometry x="660" y="290" width="360" height="180" as="geometry" />
        </mxCell>
        <mxCell id="1p1wQp9aGQIOmtk_qN-g-53" value="&lt;font style=&quot;font-size: 20px;&quot;&gt;Scheduler&lt;/font&gt;" style="text;html=1;align=center;verticalAlign=middle;resizable=0;points=[];autosize=1;strokeColor=none;fillColor=none;" vertex="1" parent="1">
          <mxGeometry x="785" y="360" width="110" height="40" as="geometry" />
        </mxCell>
        <mxCell id="1p1wQp9aGQIOmtk_qN-g-60" value="" style="rounded=0;whiteSpace=wrap;html=1;fillColor=default;strokeColor=#6c8ebf;gradientColor=#CCE5FF;gradientDirection=south;" vertex="1" parent="1">
          <mxGeometry x="997.5" y="334.96" width="280" height="70" as="geometry" />
        </mxCell>
        <mxCell id="1p1wQp9aGQIOmtk_qN-g-61" value="" style="rounded=1;whiteSpace=wrap;html=1;fillColor=#FF0000;strokeColor=#000000;fontColor=#ffffff;dashed=1;" vertex="1" parent="1">
          <mxGeometry x="1220" y="355" width="40" height="30" as="geometry" />
        </mxCell>
        <mxCell id="1p1wQp9aGQIOmtk_qN-g-62" value="" style="rounded=1;whiteSpace=wrap;html=1;fillColor=#FF0000;strokeColor=#000000;fontColor=#ffffff;dashed=1;" vertex="1" parent="1">
          <mxGeometry x="1170" y="355" width="40" height="30" as="geometry" />
        </mxCell>
        <mxCell id="1p1wQp9aGQIOmtk_qN-g-63" value="" style="rounded=1;whiteSpace=wrap;html=1;fillColor=#FF0000;strokeColor=#000000;fontColor=#ffffff;dashed=1;" vertex="1" parent="1">
          <mxGeometry x="1117.5" y="355" width="40" height="30" as="geometry" />
        </mxCell>
        <mxCell id="1p1wQp9aGQIOmtk_qN-g-64" value="" style="rounded=1;whiteSpace=wrap;html=1;fillColor=#FF0000;strokeColor=#000000;fontColor=#ffffff;dashed=1;" vertex="1" parent="1">
          <mxGeometry x="1060" y="355" width="40" height="30" as="geometry" />
        </mxCell>
        <mxCell id="1p1wQp9aGQIOmtk_qN-g-65" value="" style="rounded=1;whiteSpace=wrap;html=1;fillColor=#FF0000;strokeColor=#000000;fontColor=#ffffff;dashed=1;" vertex="1" parent="1">
          <mxGeometry x="1010" y="355" width="40" height="30" as="geometry" />
        </mxCell>
        <mxCell id="1p1wQp9aGQIOmtk_qN-g-66" value="&lt;font style=&quot;font-size: 20px;&quot;&gt;Hardware Queue&lt;/font&gt;" style="text;html=1;align=center;verticalAlign=middle;resizable=0;points=[];autosize=1;strokeColor=none;fillColor=none;" vertex="1" parent="1">
          <mxGeometry x="1047.5" y="410" width="180" height="40" as="geometry" />
        </mxCell>
        <mxCell id="1p1wQp9aGQIOmtk_qN-g-67" value="" style="shape=cylinder3;whiteSpace=wrap;html=1;boundedLbl=1;backgroundOutline=1;size=15;rotation=90;fillColor=#FFFFFF;gradientColor=#CCE5FF;strokeColor=#6c8ebf;" vertex="1" parent="1">
          <mxGeometry x="1338.73" y="306.23" width="60" height="127.46" as="geometry" />
        </mxCell>
        <mxCell id="1p1wQp9aGQIOmtk_qN-g-68" value="&lt;font style=&quot;font-size: 14px;&quot;&gt;Interface&lt;/font&gt;" style="text;html=1;align=center;verticalAlign=middle;resizable=0;points=[];autosize=1;strokeColor=none;fillColor=none;" vertex="1" parent="1">
          <mxGeometry x="1318.73" y="355" width="80" height="30" as="geometry" />
        </mxCell>
        <mxCell id="1p1wQp9aGQIOmtk_qN-g-73" value="Ingress" style="html=1;shadow=0;dashed=0;align=center;verticalAlign=middle;shape=mxgraph.arrows2.arrow;dy=0.6;dx=40;notch=0;fillColor=#FFFFFF;gradientColor=#CCE5FF;strokeColor=#6c8ebf;" vertex="1" parent="1">
          <mxGeometry x="532.5" y="160" width="235" height="30" as="geometry" />
        </mxCell>
        <mxCell id="1p1wQp9aGQIOmtk_qN-g-75" value="Engress" style="html=1;shadow=0;dashed=0;align=center;verticalAlign=middle;shape=mxgraph.arrows2.arrow;dy=0.6;dx=40;notch=0;fillColor=#FFFFFF;gradientColor=#CCE5FF;strokeColor=#6c8ebf;" vertex="1" parent="1">
          <mxGeometry x="1277.5" y="415" width="185" height="30" as="geometry" />
        </mxCell>
      </root>
    </mxGraphModel>
  </diagram>
</mxfile>
